<svg xmlns="http://www.w3.org/2000/svg" width="1400" height="920" viewBox="0 0 1400 920">
<defs><linearGradient id="bg" x1="0" y1="0" x2="1" y2="1"><stop stop-color="#fff3d9"/><stop offset="0.55" stop-color="#f0d4a6"/><stop offset="1" stop-color="#c9875d"/></linearGradient><filter id="soft"><feGaussianBlur stdDeviation="0.6"/></filter></defs>
<rect width="1400" height="920" fill="url(#bg)"/><g opacity=".45" stroke="#fff8c9" stroke-width="22"><path d="M120 -60 L-200 920"/><path d="M260 -60 L-60 920"/><path d="M420 -60 L100 920"/><path d="M600 -60 L280 920"/><path d="M800 -60 L480 920"/><path d="M1040 -60 L720 920"/></g>
<rect y="650" width="1400" height="270" fill="#d7a873"/><polygon points="310,520 940,430 1040,748 380,835" fill="#fffaf0" stroke="#b58c61" stroke-width="5"/><g stroke="#d8c7ad" stroke-width="3"><path d="M390 565 L900 495"/><path d="M390 595 L900 525"/><path d="M390 625 L900 555"/><path d="M390 655 L900 585"/><path d="M390 685 L900 615"/></g>
<g><ellipse cx="1105" cy="622" rx="96" ry="84" fill="#f7f1e8" stroke="#8b6d4e" stroke-width="6"/><ellipse cx="1105" cy="620" rx="58" ry="42" fill="#6f4a2f"/><path d="M1195 610 C1260 596 1260 690 1192 670" fill="none" stroke="#8b6d4e" stroke-width="8"/></g>
<g><rect x="160" y="650" width="100" height="130" rx="8" fill="#c96e4f"/><g fill="#4f8067"><ellipse cx="210" cy="585" rx="105" ry="32" transform="rotate(-20 210 585)"/><ellipse cx="210" cy="585" rx="105" ry="32" transform="rotate(22 210 585)"/><ellipse cx="210" cy="585" rx="105" ry="32" transform="rotate(68 210 585)"/><ellipse cx="210" cy="585" rx="105" ry="32" transform="rotate(118 210 585)"/></g></g>
<text x="80" y="120" font-family="Apple SD Gothic Neo, Arial" font-size="58" font-weight="800" fill="#5b3d26">햇살 기록실</text><text x="84" y="172" font-family="Apple SD Gothic Neo, Arial" font-size="30" fill="#775f47">사진 한 장에서 시작한 작은 웹사이트</text></svg>